<svg width="1860" height="883" viewBox="0 0 1860 883" fill="none" xmlns="http://www.w3.org/2000/svg">
<g opacity="0.1" clip-path="url(#clip0_6002_1176)">
<path d="M1860 0H0V955H1860V0Z" fill="#F5F4DC"/>
<mask id="mask0_6002_1176" style="mask-type:luminance" maskUnits="userSpaceOnUse" x="0" y="0" width="1861" height="955">
<path d="M1860 0H0V955H1860V0Z" fill="white"/>
</mask>
<g mask="url(#mask0_6002_1176)">
<path d="M123.596 -100.95C141.93 -49.5319 163.204 0.748093 183.711 51.3173C185.67 56.1517 188.363 60.7032 190.837 65.3175C196.645 76.1493 205.072 79.7012 217.04 75.5898C229.629 71.2646 242.275 67.2035 253.652 60.0808C280.646 43.1825 306.603 24.8005 332.033 5.63277C343.147 -2.74723 352.264 -12.7617 359.397 -24.6622C374.127 -49.2113 388.6 -73.8987 401.096 -99.6925C401.297 -100.107 401.466 -100.535 401.661 -100.95H123.596Z" fill="#0B0B0B"/>
<path d="M1918.3 -24.7565C1897.42 -50.2612 1876.38 -75.6464 1855.25 -100.95H1658.4C1649.96 -88.4836 1642.23 -75.5835 1636.88 -61.1307C1630.57 -44.0752 1634.27 -30.5465 1646.46 -18.1368C1662 -2.30717 1677.31 13.755 1692.77 29.6663C1713.45 50.959 1737.28 64.3242 1762.15 60.0494C1807.33 57.5473 1845.83 50.8521 1884.5 45.6154C1896.83 43.9432 1909.18 41.4663 1921.13 38.0149C1943.25 31.6341 1947.44 20.9846 1935.98 1.2133C1930.73 -7.83308 1924.91 -16.6909 1918.3 -24.7628V-24.7565Z" fill="#0B0B0B"/>
<path d="M109.587 -88.7413C107.785 -92.947 105.55 -96.9893 103.189 -100.95H41.6109C35.0368 -96.6938 28.6008 -92.2178 22.3344 -87.5029C10.4985 -78.5885 1.17418 -67.2035 -3.35297 -53.0524C-24.306 12.4537 -38.0444 79.4623 -44.0911 142.303C-43.4694 161.345 -44.1413 174.748 -39.1432 187.485C-33.0777 202.95 -22.8304 208.501 -6.71223 204.71C-2.02811 203.61 2.55555 201.994 7.09526 200.341C54.6649 183.021 97.9522 157.001 142.15 132.942C176.465 114.259 179.799 105.269 168.497 67.4172C152.542 13.9939 131.52 -37.556 109.593 -88.735L109.587 -88.7413Z" fill="#0B0B0B"/>
<path d="M139.287 897.358C141.648 921.304 127.313 928.86 102.636 929.42C88.1005 929.747 73.9539 925.29 59.9329 921.75C18.5732 911.308 -23.4332 903.13 -63.2859 887.281C-74.5442 882.805 -85.4633 877.612 -95.0513 870.024C-110.498 857.803 -116.299 840.314 -110.523 821.486C-102.423 795.07 -89.463 770.873 -75.059 747.486C-71.5491 741.785 -66.4631 736.642 -61.1071 732.556C-40.2672 716.657 -18.7177 701.708 4.25714 689.065C22.1774 679.208 43.6138 682.609 57.032 698.2C78.8578 723.566 98.6869 750.567 117.279 778.398C125.668 790.952 130.038 805.285 131.539 820.411C134.075 846.066 136.7 871.709 139.287 897.358Z" fill="#0B0B0B"/>
<path d="M1284.34 -100.95H1136C1139.93 -72.3145 1144.03 -43.698 1147.14 -14.9683C1151.03 20.9972 1169.87 48.0672 1194.16 72.6037C1198.86 77.3437 1204.57 79.7012 1211.07 81.2414C1238.93 87.8486 1260.03 73.4209 1281.15 59.1064C1283.64 57.4153 1285.62 54.2594 1286.74 51.355C1297.62 23.078 1306.55 -5.73335 1309.9 -35.9592C1310.85 -48.6392 1306.91 -59.9614 1301.18 -70.8497C1295.83 -81.0402 1290.18 -91.061 1284.34 -100.956V-100.95Z" fill="#0B0B0B"/>
<path d="M1596.71 246.899C1584.43 245.252 1572.32 246.283 1560.35 243.756C1546.15 240.757 1537.05 230.824 1536.22 216.29C1535.82 209.368 1536.94 202.616 1539.12 196.047C1557.79 139.801 1577.62 83.9824 1600.04 29.1068C1603.41 20.8714 1607.47 12.9566 1612.87 5.87165C1620.67 -4.36918 1629.38 -6.91524 1638.81 1.34532C1679.01 36.5753 1722.02 69.8564 1735 126.285C1738.16 140.015 1742.59 153.449 1745.96 167.135C1748.47 177.307 1746.72 187.736 1737.67 193.155C1693.87 219.351 1649.85 245.434 1596.72 246.886L1596.71 246.899Z" fill="#0B0B0B"/>
<path d="M1968.6 51.8831C1967.53 51.9271 1966.47 51.9711 1965.42 52.1094C1920.75 57.8428 1876.03 63.2618 1831.43 69.4981C1808.75 72.6728 1785.86 75.2315 1763.91 82.2787C1747.95 87.4023 1743.2 95.1913 1745.19 109.94C1753.74 173.308 1788.42 219.722 1839.32 255.499C1852.41 264.709 1861.22 264.168 1873.1 253.456C1881.15 246.201 1888.83 238.305 1895.46 229.755C1920.04 198.059 1944.4 166.198 1968.6 134.218V51.8831Z" fill="#0B0B0B"/>
<path d="M671.199 -65.4747C681.547 -65.921 689.019 -60.8792 695.718 -53.9388C706.958 -42.2898 716.684 -29.44 725.569 -15.9616C742.434 9.61845 758.835 35.5191 775.976 60.9106C790.701 82.7188 791.335 103.861 780.077 128.064C767.939 154.166 754.094 176.59 726.19 188.365C705.79 196.977 697.52 196.317 683.072 179.023C666.979 159.754 654.553 137.99 641.7 116.566C623.033 85.4534 604.767 54.096 586.47 22.7574C577.058 6.63862 575.991 -9.98309 584.279 -26.982C586.608 -31.7661 589.082 -36.8268 593.867 -39.1465C618.568 -51.0973 644.243 -60.3008 671.193 -65.481L671.199 -65.4747Z" fill="#0B0B0B"/>
<path d="M244.786 931.495C222.527 928.408 200.149 925.767 178.242 920.172C164.748 916.727 157.697 907.48 155.983 894.485C152.931 871.319 150.074 848.091 148.429 824.792C147.035 805.021 153.873 787.287 167.216 772.633C192.187 745.211 216.971 717.588 244.441 692.58C255.743 682.288 261.646 681.679 274.386 690.58C287.615 699.822 299.841 710.377 310.967 722.12C318.766 730.349 321.208 740.301 319.243 751.252C310.848 798.125 299.746 844.394 287.697 890.437C284.589 902.306 278.542 912.773 269.745 921.549C262.826 928.452 254.984 932.746 244.78 931.488L244.786 931.495Z" fill="#0B0B0B"/>
<path d="M1968.6 774.041C1951.36 770.401 1933.41 768.452 1913.44 768.848C1887.74 762.027 1871.74 777.266 1860.67 801.388C1854.11 815.677 1846.3 829.419 1840.29 843.923C1830.42 867.742 1836.87 881.353 1861.02 890.047C1865.56 891.682 1870.24 892.951 1874.92 894.152C1898.75 900.294 1923.12 903.507 1947.43 906.851C1954.51 907.826 1961.58 908.643 1968.61 909.183V774.035L1968.6 774.041Z" fill="#0B0B0B"/>
<path d="M553.813 -52.1534C525.024 -69.649 495.488 -85.8495 465.367 -100.944H424.679C422.538 -98.7495 420.579 -96.216 418.79 -93.4562C404.097 -70.7806 391.376 -47.0047 379.483 -22.7385C371.245 -5.93452 372.306 9.69389 381.957 25.4355C397.768 51.2167 414.815 76.1304 433.495 99.8874C441.846 110.499 453.13 117.616 465.028 123.783C474.905 128.9 482.923 127.121 488.926 117.704C499.098 101.742 509.854 86.1009 519.065 69.5987C535.334 40.4541 554.899 12.9818 565.812 -18.9415C571.809 -36.4684 569.693 -42.4784 553.807 -52.1346L553.813 -52.1534Z" fill="#0B0B0B"/>
<path d="M697.156 882.956C697.206 867.654 696.579 852.353 699.875 837.208C703.04 822.68 710.436 812.144 725.192 807.75C750.019 800.35 774.526 796.515 798.725 810.535C811.591 817.99 825.185 824.176 838.452 830.941C866.871 845.425 882.022 871.936 897.826 897.597C903.54 906.876 899.811 915.325 891.171 921.738C878.839 930.891 865.59 938.473 852.021 945.57C817.43 963.663 782.99 982.083 747.175 997.673C716.169 1011.17 705.206 1004.39 702.066 970.93C699.316 941.66 697.301 912.364 697.163 882.962L697.156 882.956Z" fill="#0B0B0B"/>
<path d="M849.39 85.3403C822.541 89.4957 802.423 77.0231 787.134 53.6371C771.047 29.0314 753.454 5.41903 738.485 -19.9284C735.207 -25.4795 731.973 -31.0745 729.123 -36.8456C714.681 -66.0719 722.68 -79.8018 755.595 -78.7645C793.074 -77.5826 829.674 -69.0517 866.218 -61.1684C892.546 -55.4916 919.181 -51.0533 944.881 -42.6984C973.118 -33.52 976.703 -27.378 970.958 1.50249C970.801 2.2946 970.65 3.09299 970.587 3.8914C968.233 32.3319 953.892 51.0784 927.288 62.1994C902.542 72.5471 879.812 88.5464 849.39 85.334V85.3403Z" fill="#0B0B0B"/>
<path d="M1968.6 377.358C1958.05 372.26 1947.27 367.626 1936.35 363.263C1908.17 352.017 1901.32 354.858 1888.17 382.111C1886.07 386.461 1884.05 390.887 1882.42 395.426C1869.68 430.7 1858.14 466.351 1848.63 502.643C1845.14 515.939 1842.16 529.311 1842.86 543.185C1843.64 558.55 1849.19 564.937 1864 568.225C1873.13 570.255 1882.35 570.463 1891.66 570.702C1905.7 569.784 1919.74 568.52 1933.81 568.017C1949.59 567.451 1960.46 565.459 1968.6 560.297V377.358Z" fill="#0B0B0B"/>
<path d="M570.785 1039.75H682.47C687.87 1027.07 690.582 1014.38 689.138 1001.65C686.143 950.191 685.672 914.672 680.479 879.498C677.082 856.477 668.794 851.498 647.477 860.242C618.355 872.187 590.263 886.357 563.225 902.476C541.902 915.187 535.73 928.194 542.015 952.303C549.782 982.108 559.483 1011.22 570.785 1039.74V1039.75Z" fill="#0B0B0B"/>
<path d="M1881.96 352.199C1879.95 360.214 1877.49 371.65 1874.2 382.84C1859.78 431.969 1843.88 480.634 1826.91 528.94C1823.45 538.797 1819.26 548.491 1814.43 557.745C1805.56 574.731 1788.96 576.297 1777.89 560.763C1762.45 539.086 1748 516.524 1737.42 492.126C1728.15 470.745 1722.27 447.919 1714.17 426.004C1707.48 407.892 1715.45 394.596 1728.73 385.097C1764.13 359.749 1801.99 338.193 1840.87 318.692C1860.79 308.702 1883.52 325.978 1881.95 352.193L1881.96 352.199Z" fill="#0B0B0B"/>
<path d="M1474 207.243C1459.53 207.174 1443.15 205.244 1426.98 201.881C1411.12 198.58 1404.63 191.627 1408.55 176.489C1421.68 125.757 1434.37 74.4959 1473.74 35.8523C1486.93 22.8957 1497.06 6.76436 1512.87 -3.45761C1535.68 -18.2059 1561.56 -18.6586 1587.37 -17.5647C1595.22 -17.2315 1597.65 -10.2723 1595.99 -3.02384C1593.38 8.35486 1591.01 19.9033 1587.1 30.8545C1571.91 73.3706 1556.2 115.711 1540.51 158.045C1538.13 164.451 1535.03 170.618 1531.88 176.697C1517.1 205.162 1508.19 210.016 1474 207.243Z" fill="#0B0B0B"/>
<path d="M1127.14 -75.5835C1125.84 -84.0138 1124.74 -92.4881 1123.54 -100.944H1036.99C1013.14 -67.455 990.247 -33.8155 984.137 9.68761C980.452 35.9341 986.9 52.7884 1007.41 67.5618C1018.88 75.8287 1029.58 77.9473 1042.23 72.5031C1065.56 62.4697 1088.16 51.003 1110.29 38.5744C1127.81 28.7422 1136.95 14.5031 1135.95 -6.11684C1133.06 -29.2829 1130.71 -52.5306 1127.14 -75.5898V-75.5835Z" fill="#0B0B0B"/>
<path d="M1157.19 914.741C1155.55 938.341 1159.28 962.638 1154.66 986.684C1151.18 1004.75 1144.57 1010.6 1127.02 1005.92C1085.72 994.888 1045.69 979.889 1007.07 961.507C995.71 956.1 990.04 944.677 984.96 933.544C982.474 928.1 985.23 923.379 987.377 918.569C996.57 898.037 1012.86 883.515 1029.13 868.981C1034.54 864.146 1040.52 859.89 1045.52 854.673C1069.09 830.086 1098.82 821.354 1131.69 820.008C1145.07 819.461 1151.56 824.384 1154.26 838.101C1159.23 863.329 1155.71 888.846 1157.19 914.741H1157.19Z" fill="#0B0B0B"/>
<path d="M841.071 100.717C867.756 95.1662 882.273 108.858 891.987 131.308C909.612 172.038 926.339 213.09 940.279 255.26C947.261 276.389 944.31 294.092 925.171 307.508C920.004 311.129 914.541 314.165 908.375 312.625C889.482 307.917 871.317 301.781 857.967 286.083C834.961 259.026 813.996 230.409 792.823 201.937C779.323 183.788 775.845 164.928 787.417 144.434C789.985 139.889 792.233 135.073 793.959 130.145C801.902 107.469 815.798 94.4244 841.071 100.711V100.717Z" fill="#0B0B0B"/>
<path d="M464.501 837.831C464.118 851.284 458.335 859.739 447.441 864.838C434.958 870.672 421.753 874.362 408.411 877.417C383.69 883.075 358.938 888.639 334.08 893.624C312.016 898.05 302.754 888.501 306.653 866.303C312.65 832.11 321.729 798.628 329.848 764.925C335.11 743.092 347.799 729.526 370.347 725.496C381.43 723.516 392.274 720.234 403.337 718.116C423.951 714.174 437.181 721.366 445.444 740.999C453.33 759.72 457.236 779.523 460.062 799.527C461.92 812.691 463.151 825.943 464.507 837.831H464.501Z" fill="#0B0B0B"/>
<path d="M3.67323 644.009C5.1174 659.694 -1.36252 671.532 -13.437 680.761C-27.8599 691.781 -42.9483 701.871 -58.9157 710.458C-71.4863 717.223 -80.1513 715.544 -88.3516 703.839C-107.565 676.417 -124.456 647.524 -138.847 617.266C-145.71 602.839 -143.167 589.624 -130.659 579.151C-106.875 559.235 -82.7131 539.728 -56.7558 522.754C-39.1558 511.249 -26.7861 515.285 -18.0207 534.189C-5.7892 560.58 -3.62296 589.379 0.634201 617.625C1.95277 626.376 2.68115 635.208 3.6795 644.009H3.67323Z" fill="#0B0B0B"/>
<path d="M1763.96 752.371C1731.07 751.956 1705.2 734.574 1680.79 715.481C1668.36 705.756 1672.8 679.686 1687.48 664.108C1701.09 649.674 1717.15 638.094 1732.78 626.036C1746.48 615.456 1760.27 604.963 1774.12 594.572C1778.99 590.919 1784.38 588.254 1790.55 587.374C1800.64 585.94 1807.68 588.832 1810.89 599.494C1822.86 639.288 1833.41 679.447 1840.77 720.36C1843.25 734.184 1837.67 741.445 1823.93 745.016C1820.43 745.927 1816.86 746.694 1813.28 747.122C1796.92 749.077 1780.7 752.472 1763.96 752.365V752.371Z" fill="#0B0B0B"/>
<path d="M898.348 107.588C898.059 99.0827 902.19 92.7898 908.852 88.2949C924.958 77.4317 942.64 69.5924 960.685 62.6583C968.691 59.5842 976.395 61.4953 983.616 66.2416C1016.32 87.7354 1035.04 119.898 1050.81 154.31C1054.19 161.691 1051.94 168.398 1047.62 174.779C1027.57 204.383 1001.62 228.611 976.031 253.085C966.732 261.98 958.676 261.264 953.32 250.413C931.18 205.596 911.816 159.597 898.731 111.184C898.417 110.034 898.454 108.789 898.341 107.582L898.348 107.588Z" fill="#0B0B0B"/>
<path d="M304.267 200.517C290.183 201.246 278.699 196.191 268.866 186.887C250.689 169.681 233.566 151.488 218.622 131.358C215.281 126.851 212.336 121.941 209.913 116.886C203.81 104.169 206.39 97.1842 219.162 91.916C232.034 86.6102 245.464 84.1647 259.366 86.3461C311.08 94.4684 362.429 104.571 413.54 115.855C428.183 119.087 442.072 124.638 454.536 133.112C464.827 140.115 464.62 146.408 454.448 153.688C453.795 154.159 453.148 154.662 452.432 155.014C405.434 178.168 355.34 191.049 304.273 200.529L304.267 200.517Z" fill="#0B0B0B"/>
<path d="M1616.83 1039.75H1695.88C1700.63 1025.74 1704.04 1011.95 1705.94 999.415C1706.17 979.681 1698.45 967.152 1690.51 955.075C1669.9 923.762 1648.06 893.297 1624.72 863.951C1613.88 850.31 1608.01 851.196 1600.75 866.542C1581.6 906.996 1575.4 950.373 1571.56 994.304C1570.95 1001.24 1574.02 1006.64 1578.72 1011.57C1589.82 1023.18 1603.55 1031.18 1616.83 1039.75Z" fill="#0B0B0B"/>
<path d="M1734.97 359.548C1719.81 360.447 1711.83 352.193 1704.68 344.335C1686.77 324.658 1670.2 303.774 1656.13 281.117C1646.15 265.048 1647.98 257.027 1664.44 247.333C1688.43 233.213 1713.88 222.029 1740 212.405C1754.69 206.992 1767.93 210.072 1779.7 219.427C1798.34 234.25 1815.65 250.602 1830.99 268.845C1842.88 282.984 1842.73 295.425 1828.77 306.885C1802.83 328.184 1774.19 345.422 1742.87 357.851C1739.57 359.158 1735.84 359.372 1734.98 359.548H1734.97Z" fill="#0B0B0B"/>
<path d="M1440.8 216.566C1457.47 218.559 1482.71 221.055 1507.76 224.751C1522.93 226.989 1535.58 243.303 1536.32 260.905C1537.39 286.253 1531.58 309.922 1515.04 329.787C1505.77 340.915 1495.34 351.08 1485.54 361.767C1479.34 368.538 1472.29 370.097 1463.73 366.583C1443.58 358.316 1423.92 349.075 1404.89 338.476C1396.09 333.572 1391.05 326.361 1390.78 316.114C1390.07 289.396 1392.59 262.892 1397.96 236.809C1401.44 219.923 1408.77 216.371 1440.8 216.56L1440.8 216.566Z" fill="#0B0B0B"/>
<path d="M989.657 876.833C989.412 889.94 982.643 902.589 973.633 914.263C970.355 918.513 965.539 919.695 960.585 918.802C943.035 915.627 925.887 911.83 914.303 896.001C903.609 881.384 892.552 867.045 883.127 851.536C876.29 840.283 874.594 828.319 877.665 815.52C885.011 784.923 894.58 755.005 905.669 725.609C911.979 708.881 919.144 706.793 934.163 716.701C952.887 729.048 973.294 739.974 977.475 765.56C982.084 793.781 984.59 822.234 987.528 850.643C988.357 858.646 988.847 866.68 989.663 876.833H989.657Z" fill="#0B0B0B"/>
<path d="M1171.06 1002.88C1172.77 1016.23 1177.73 1026.73 1189.48 1033.63C1192.9 1035.63 1196.27 1037.71 1199.66 1039.75H1228.01C1228.49 1038.29 1228.95 1036.64 1229.39 1034.79C1234.73 1012.5 1238.84 989.903 1243.1 967.366C1250.12 930.08 1255.52 892.738 1249.15 854.628C1247.11 842.439 1242.64 832.431 1232.66 824.968C1226.86 820.637 1221.39 815.866 1215.71 811.371C1197.35 796.836 1175.14 805.681 1171.14 829.086C1166.36 857.131 1170.3 885.401 1168.63 912.339C1169.88 943.307 1167.26 973.13 1171.08 1002.88H1171.06Z" fill="#0B0B0B"/>
<path d="M1371.51 -35.494C1401.36 -32.6336 1439.97 -26.6991 1478.14 -18.4134C1498 -14.1071 1499.59 -7.85822 1486.94 7.64447C1474.95 22.3425 1462.09 36.2673 1448.49 49.5005C1437.44 60.2443 1424.16 66.7383 1409.36 70.045C1386.17 75.2252 1362.98 80.4933 1339.6 84.7367C1313.69 89.4454 1298.8 74.3136 1304.28 48.5449C1308.14 30.427 1313.52 12.5983 1318.96 -5.12985C1327.58 -33.2497 1332.91 -36.7387 1371.51 -35.494H1371.51Z" fill="#0B0B0B"/>
<path d="M445.155 177.212C462.366 176.955 467.439 183.097 461.882 199.706C451.353 231.17 437.602 261.364 420.837 289.918C406.495 314.348 381.825 323.18 354.92 315.907C347.146 313.807 339.605 310.758 331.782 308.929C313.378 304.629 303.52 293.162 301.253 274.554C300.18 265.746 298.616 257.001 297.178 248.244C294.058 229.253 297.536 221.545 315.199 213.593C344.346 200.479 375.37 192.96 406.05 184.505C418.859 180.972 431.718 177.457 445.155 177.219V177.212Z" fill="#0B0B0B"/>
<path d="M182.292 613.683C209.794 614.079 236.994 636.849 241.653 663.378C242.953 670.778 240.04 677.108 235.569 682.376C211.043 711.288 185.412 739.188 156.315 763.58C143.952 773.947 135.714 773.582 124.814 761.719C107.358 742.721 91.2337 722.504 78.2613 700.092C70.4189 686.538 71.411 679.654 83.7869 669.451C109.035 648.636 136.926 631.694 165.753 616.311C170.889 613.57 176.609 613.532 182.285 613.677L182.292 613.683Z" fill="#0B0B0B"/>
<path d="M59.8703 516.995C71.4738 517.14 79.85 520.013 87.0081 525.539C109.022 542.538 130.157 560.637 148.982 581.131C163.756 597.218 162.971 602.097 145.535 614.45C119.904 632.612 93.5821 649.743 66.2371 665.227C59.9519 668.785 53.5034 672.179 45.7739 671.318C27.9667 669.338 22.5354 665.164 18.8245 647.492C11.8737 614.368 7.29628 580.842 3.66702 547.202C2.26053 534.17 7.98697 525.885 20.5575 523.263C34.3085 520.39 48.3232 518.781 59.864 516.989L59.8703 516.995Z" fill="#0B0B0B"/>
<path d="M658.861 179.595C658.942 189.917 653.523 195.651 642.736 193.909C600.403 187.089 559.439 175.219 521.106 155.832C504.793 147.584 500.938 135.023 508.083 118.137C519.743 90.577 534.995 64.8712 552.218 40.473C561.894 26.7682 570.999 26.7871 581.083 40.0329C610.236 78.3244 634.272 119.759 654.76 163.281C657.172 168.405 658.905 173.799 658.854 179.589L658.861 179.595Z" fill="#0B0B0B"/>
<path d="M738.058 337.709C720.998 337.57 707.9 328.153 706.298 315.517C702.594 286.253 703.938 256.794 705.181 227.411C705.426 221.646 708.609 216.485 713.237 212.97C725.481 203.685 738.767 196.072 753.228 190.867C761.202 187.994 768.887 190.697 774.243 196.65C799.052 224.204 822.824 252.607 841.278 285.008C845.541 292.489 844.568 299.719 836.807 303.711C804.389 320.414 769.434 329.662 738.045 337.709H738.058Z" fill="#0B0B0B"/>
<path d="M1728.32 945.96C1727.92 949.719 1727.96 952.611 1727.25 955.308C1725.9 960.444 1724.07 965.876 1718.52 967.561C1712.72 969.315 1709.78 964.09 1707 960.432C1676.77 920.556 1647.12 880.24 1620.12 838.095C1606.88 817.431 1605.19 793.196 1602.33 769.571C1601.96 766.585 1602.75 762.675 1604.51 760.349C1615.95 745.318 1631.45 736.315 1649.82 733.052C1656.69 731.833 1661.61 737.114 1665.42 742.759C1672.26 752.899 1677.06 764.045 1680.85 775.531C1697.8 826.898 1713.17 878.738 1725.77 931.369C1726.99 936.442 1727.58 941.666 1728.31 945.96H1728.32Z" fill="#0B0B0B"/>
<path d="M288.57 270.757C288.664 292.791 283.741 298.342 266.361 296.236C240.724 293.13 215.909 286.133 191.898 276.502C175.573 269.952 171.385 255.656 170.242 240.317C168.051 210.971 166.638 181.569 167.624 152.116C167.768 147.735 168.164 143.164 169.564 139.065C175.573 121.457 188.445 117.892 201.242 131.025C224.568 154.964 247.637 179.186 268.565 205.332C284.953 225.801 285.656 250.759 288.57 270.763V270.757Z" fill="#0B0B0B"/>
<path d="M-59.4746 333.082C-55.6067 312.204 -50.7719 288.504 -41.7992 265.91C-38.4023 257.366 -31.1186 254.833 -24.3122 260.679C9.65711 289.824 42.1195 320.578 67.6059 357.75C73.7028 366.646 70.3436 376 63.1039 383.029C42.8165 402.737 20.7333 420.264 -3.13319 435.465C-10.9756 440.463 -19.019 440.783 -24.0046 431.869C-40.2232 402.894 -52.9884 372.492 -59.4494 339.714C-59.6818 338.551 -59.4808 337.3 -59.4808 333.082H-59.4746Z" fill="#0B0B0B"/>
<path d="M1664.61 679.265C1662.77 690.92 1659.07 705.171 1645.52 714.476C1634.55 722.001 1623.36 729.136 1611.28 734.762C1601.84 739.157 1593.07 738.182 1585.98 730.268C1557.4 698.401 1532.93 663.498 1510.91 626.86C1505.05 617.115 1506.48 607.484 1514.56 599.211C1518.77 594.899 1523.06 590.643 1527.47 586.531C1534.77 579.729 1543.24 578.107 1551.91 583.048C1589.4 604.404 1624.91 628.626 1657.14 657.456C1662.42 662.184 1665.17 668.489 1664.61 679.265Z" fill="#0B0B0B"/>
<path d="M852.379 674.474C849.158 674.474 845.88 674.084 842.722 674.537C810.586 679.126 792.603 660.568 778.701 635.372C777.358 632.932 776.221 630.21 775.731 627.488C772.184 607.767 798.11 568.86 817.826 565C832.029 562.221 846.389 560.002 860.78 558.493C882.273 556.236 895.183 563.856 904.112 583.677C908.243 592.849 910.88 602.688 914.981 611.872C923.219 630.336 917.241 646.398 907.691 662.159C904.068 668.137 898.938 671.067 892.138 672.337C878.945 674.801 865.678 674.518 852.392 674.48L852.379 674.474Z" fill="#0B0B0B"/>
<path d="M-16.2564 483.4C-17.2862 470.387 -12.0307 458.568 -0.690798 448.893C24.1677 427.695 49.3276 406.892 76.2771 388.403C93.7829 376.39 133.127 380.627 148.102 395.532C153.308 400.713 153.841 406.163 149.603 411.746C127.664 440.645 106.039 469.84 79.6426 494.961C73.6838 500.631 66.1114 503.926 58.0806 505.277C42.6154 507.88 27.1189 510.791 11.5156 511.972C-11.0762 513.682 -16.4448 507.905 -16.2627 483.4H-16.2564Z" fill="#0B0B0B"/>
<path d="M435.328 405.522C446.982 406.886 464.595 408.697 482.126 411.104C492.235 412.494 499.129 418.529 505.201 426.965C522.569 451.125 523.485 472.216 504.611 498.041C487.72 521.151 469.122 532.794 441.35 531.593C433.269 531.241 426.437 528.858 420.793 522.993C409.007 510.747 398.942 497.136 389.278 483.224C384.305 476.07 384.161 468.029 386.673 459.989C390.157 448.824 393.605 437.634 397.68 426.682C404.511 408.319 409.264 405.358 435.335 405.528L435.328 405.522Z" fill="#0B0B0B"/>
<path d="M704.804 795.352C674.885 795.849 653.612 762.511 667.406 740.546C689.672 705.083 719.397 675.951 751.061 648.894C759.67 641.539 767.695 643.852 775.248 652.163C790.776 669.244 797.746 687.557 789.401 710.729C783.128 728.143 779.059 746.349 773.898 764.171C770.2 776.939 761.987 784.992 748.744 787.425C732.915 790.329 717.073 793.146 704.804 795.352Z" fill="#0B0B0B"/>
<path d="M1198.43 766.365C1199.11 778.731 1193.67 786.727 1183.04 792.957C1157.53 807.9 1129.17 807.982 1101.17 809.887C1091.96 810.516 1086.59 805.034 1084.19 795.887C1081.19 784.407 1081.47 772.645 1080.55 761.046C1078.71 737.761 1077.99 714.381 1077.15 691.027C1077 686.695 1078.12 682.213 1079.26 677.969C1082.73 665.12 1085.87 663.322 1098.24 668.326C1111.68 673.757 1124.92 679.698 1138.04 685.865C1167.83 699.866 1180.74 728.488 1196.39 754.584C1198.3 757.771 1197.81 762.404 1198.42 766.365H1198.43Z" fill="#0B0B0B"/>
<path d="M141.208 347.333C140.976 377.301 139.607 377.773 113.863 370.996C94.9069 366.004 81.3191 353.796 68.083 340.902C41.2654 314.775 15.283 287.818 -9.09832 259.365C-12.2315 255.713 -15.2894 251.872 -17.6503 247.704C-23.8477 236.771 -21.6626 229.806 -10.643 223.966C-8.51438 222.84 -6.26022 221.941 -4.03746 221.011C30.5786 206.527 38.4713 208.582 64.2214 236.438C85.2623 259.196 105.901 282.292 125.95 305.936C136.888 318.836 143.644 332.811 141.214 347.34L141.208 347.333Z" fill="#0B0B0B"/>
<path d="M315.896 318.264C331.951 320.722 350.449 325.814 367.867 334.471C369.958 335.508 372.3 337.124 373.311 339.098C384.732 361.321 396.437 383.814 389.875 409.96C386.265 424.344 381.028 438.394 375.546 452.212C368.118 470.934 344.899 475.322 332.184 459.656C309.862 432.158 290.34 402.586 273.192 371.53C268.697 363.395 269.752 355.588 274.662 347.61C288.381 325.33 297.147 318.302 315.896 318.27V318.264Z" fill="#0B0B0B"/>
<path d="M421.54 645.367C420.849 621.107 422.111 596.967 426.268 573.053C428.623 559.518 434.588 548.164 449.08 544.713C465.204 540.865 481.762 536.559 495.243 551.641C505.986 563.661 517.263 575.196 526.619 588.423C532.728 597.061 533.431 605.567 527.196 614.148C503.412 646.901 475.985 676.436 446.386 703.889C437.646 711.999 426.519 706.995 423.825 694.855C420.196 678.504 421.929 661.876 421.534 645.367H421.54Z" fill="#0B0B0B"/>
<path d="M1444.06 718.153C1453.74 717.958 1459.87 721.171 1465.16 725.559C1479.09 737.132 1492.58 749.196 1505.08 762.354C1512.06 769.697 1512.67 776.788 1505.97 784.747C1491.44 801.991 1476.74 819.021 1459.47 833.65C1453.74 838.503 1447.68 840.056 1440.47 837.655C1419.06 830.532 1398.18 822.045 1378.46 811.107C1361.88 801.903 1355.23 783.534 1360.53 765.315C1361.59 761.663 1363.61 758.721 1366.75 756.69C1389.08 742.256 1412.31 729.475 1437.02 719.561C1439.93 718.392 1443.27 718.292 1444.07 718.141L1444.06 718.153Z" fill="#0B0B0B"/>
<path d="M1711.02 507.408C1723.44 507.547 1732.83 512.582 1739.22 522.289C1747.65 535.082 1755.56 548.227 1763.51 561.322C1770.11 572.179 1768.62 582.59 1759.55 590.982C1740.31 608.792 1720.54 626.086 1697.39 638.76C1684.24 645.965 1676.51 644.003 1669.47 630.518C1653.68 600.286 1644.42 567.64 1636.72 534.592C1633.98 522.81 1641.86 517.523 1651.81 515.21C1671.48 510.627 1691.67 509.797 1711.03 507.408H1711.02Z" fill="#0B0B0B"/>
<path d="M532.854 737.629C553.323 740.596 578.684 735.881 600.636 751.107C613.671 760.154 615.159 763.863 603.813 775.279C573.115 806.172 540.866 835.41 506.696 862.43C494.439 872.124 483.708 868.836 480.675 853.717C474.572 823.321 468.111 792.888 466.881 761.751C466.209 744.72 471.307 738.767 488.223 737.786C501.867 736.994 515.599 737.629 532.848 737.629H532.854Z" fill="#0B0B0B"/>
<path d="M773.703 425.306C764.75 425.821 758.96 421.446 755.815 413.544C750.289 399.663 746.151 385.323 743.401 370.638C741.222 358.976 744.958 349.886 756.279 344.944C789.206 330.58 823.251 319.377 858.313 311.908C872.717 308.841 885.658 316.944 897.751 324.268C902.812 327.336 902.222 332.818 899.786 337.294C881.79 370.305 865.063 404.353 822.592 412.739C806.122 415.989 790.701 423.904 773.703 425.306Z" fill="#0B0B0B"/>
<path d="M1456.76 895.63C1456.76 886.747 1456.84 877.864 1456.74 868.987C1456.56 853.553 1465.87 843.633 1476.73 834.807C1482.34 830.249 1488.47 831.997 1493.44 836.014C1518.96 856.615 1541.17 880.517 1561.48 906.172C1566.58 912.616 1568.62 920.757 1567.96 929.049C1566.68 945.124 1565.25 961.23 1560.92 976.833C1557.6 988.765 1552.73 991.544 1541.26 986.559C1516.85 975.947 1493.33 963.48 1470.99 948.946C1461.59 942.829 1456.97 933.519 1456.75 922.266C1456.57 913.389 1456.71 904.506 1456.71 895.623H1456.75L1456.76 895.63Z" fill="#0B0B0B"/>
<path d="M1686.56 753.729C1685.86 741.697 1690.1 738.754 1698.25 742.539C1722.19 753.641 1744.94 765.812 1758.73 790.424C1770.36 811.169 1783.92 830.872 1793.29 852.843C1804.22 878.48 1801.42 892.329 1781.42 911.528C1774.47 918.205 1766.96 924.428 1759.09 929.998C1747.89 937.919 1742.76 936.335 1736.38 923.819C1733.64 918.444 1731.07 912.886 1729.22 907.153C1713.87 859.52 1699.95 811.465 1688.16 762.813C1687.21 758.909 1686.76 754.886 1686.56 753.723L1686.56 753.729Z" fill="#0B0B0B"/>
<path d="M1057.5 391.478C1041.74 390.214 1026.33 386.932 1011.86 380.64C995.245 373.404 979.083 365.112 962.764 357.203C956.523 354.179 950.79 350.238 946.752 344.573C941.346 336.992 931.551 329.725 937.817 319.182C944.605 307.766 953.138 296.758 969.225 298.675C995.352 301.787 1020.39 309.702 1045.61 316.605C1077.86 325.425 1110.29 333.685 1141.79 345.051C1145.41 346.359 1150.66 347.006 1151.17 351.589C1151.73 356.612 1146.28 357.492 1142.88 359.033C1121.57 368.639 1100.15 378.012 1078.73 387.347C1072.01 390.277 1064.93 391.805 1057.5 391.478Z" fill="#0B0B0B"/>
<path d="M412.071 630.305C411.041 648.775 413.421 667.326 409.616 685.746C407.268 697.125 401.51 704.511 390.365 708.183C376.94 712.602 363.265 715.903 349.338 717.889C332.447 720.297 303.997 703.047 297.341 687.179C294.491 680.39 296.393 674.311 300.28 668.961C322.043 638.974 344.39 609.44 370.699 583.199C377.43 576.485 386.214 573.273 394.773 569.746C403.569 566.119 408.618 569.092 410.313 578.44C413.434 595.659 411.035 613.029 412.077 630.311L412.071 630.305Z" fill="#0B0B0B"/>
<path d="M1288.71 77.0671C1294.66 77.042 1298.14 80.4367 1301.75 83.7183C1316.54 97.1967 1326.86 114.114 1337.56 130.698C1348.48 147.628 1359.66 164.432 1369.52 181.978C1377.64 196.411 1374.75 203.918 1359.6 210.783C1346.42 216.749 1332.8 221.778 1319.23 226.857C1308.36 230.931 1298.76 227.983 1292.91 218.201C1273.84 186.296 1257.41 153.059 1248.73 116.666C1245.38 102.584 1249.86 94.8393 1262.52 87.6977C1270.94 82.9451 1279.64 78.7079 1288.71 77.0734V77.0671Z" fill="#0B0B0B"/>
<path d="M1209.94 775.405C1209.35 765.912 1212.81 758.274 1220.69 752.535C1242.54 736.623 1264.8 721.315 1287.82 707.171C1303.95 697.263 1311.39 698.677 1320.5 714.759C1330.4 732.216 1342.48 748.737 1346.59 769.049C1350.86 790.128 1347.94 796.327 1328.04 802.915C1308.16 809.491 1287.96 815.067 1267.87 820.995C1259.58 823.435 1251.58 822.07 1244.85 816.966C1234.91 809.422 1225.45 801.237 1215.92 793.171C1210.48 788.569 1209.48 782.239 1209.94 775.405Z" fill="#0B0B0B"/>
<path d="M845.171 683.866C856.818 685.017 866.494 685.539 876.026 687.01C890.662 689.266 897.161 697.848 895.089 712.495C890.536 744.657 879.203 774.952 867.951 805.128C862.294 820.304 854.213 822.567 839.042 816.582C824.764 810.949 811.453 803.336 798.292 795.535C788.723 789.858 784.403 781.076 786.249 769.898C790.198 745.959 797.086 722.812 805.632 700.149C808.47 692.617 814.749 688.833 822.077 687.299C830.321 685.57 838.76 684.79 845.165 683.879L845.171 683.866Z" fill="#0B0B0B"/>
<path d="M1084.76 161.257C1075.03 161.816 1066.35 157.85 1060.77 148.074C1054.19 136.544 1047.16 125.235 1041.27 113.36C1034.71 100.126 1036.61 91.9412 1048.88 84.4476C1074.63 68.7123 1101.54 55.1018 1129.7 44.138C1141.09 39.706 1151.14 42.1389 1159.03 51.6002C1165.98 59.9299 1172.81 68.3728 1179.25 77.0923C1184.51 84.2087 1183.93 91.6268 1177.7 97.9197C1154.97 120.885 1129.58 140.543 1102.31 157.762C1097.47 160.811 1091.75 161.521 1084.76 161.263V161.257Z" fill="#0B0B0B"/>
<path d="M564.211 465.967C572.568 465.024 579.186 467.457 585.177 472.04C596.692 480.848 607.505 490.428 617.727 500.732C624.571 507.635 625.852 514.808 621.953 523.728C610.971 548.843 594.168 569.878 575.733 589.599C566.635 599.331 555.471 599.211 545.675 590.322C530.757 576.781 517.508 561.63 505.201 545.675C498.005 536.345 497.12 526.62 503.851 516.637C510.595 506.629 517.778 496.903 524.126 486.656C533.639 471.305 547.678 465.559 564.205 465.961L564.211 465.967Z" fill="#0B0B0B"/>
<path d="M1535.37 761.505C1524.17 761.593 1517.83 757.972 1512.35 753.176C1498.12 740.735 1483.83 728.319 1470.22 715.217C1452.2 697.885 1443.8 675.166 1437.04 651.786C1436.31 649.252 1436.33 646.021 1437.24 643.569C1443.96 625.194 1486.9 616.304 1499.59 631.38C1526.03 662.806 1549.92 696.219 1571.44 731.21C1580.28 745.569 1578.24 749.706 1562.37 754.496C1552.4 757.507 1542.2 759.758 1535.37 761.505Z" fill="#0B0B0B"/>
<path d="M1582.89 260.126C1608.48 257.869 1633.52 267.494 1651.71 293.866C1663.37 310.752 1676.91 326.324 1689.37 342.662C1695.48 350.659 1701.15 358.995 1706.82 367.312C1711.01 373.454 1712.23 379.873 1707.34 386.373C1702.5 392.804 1696.33 395.268 1688.28 393.665C1681.03 392.219 1674.41 389.277 1668.21 385.549C1628.05 361.352 1591.81 331.919 1556.52 301.221C1550.43 295.928 1547 289.377 1547.29 281.073C1547.94 262.156 1550.91 260.082 1582.88 260.126H1582.89Z" fill="#0B0B0B"/>
<path d="M546.272 456.405C539.698 457.015 534.229 453.853 530.669 447.906C524.873 438.225 518.864 428.581 514.092 418.39C503.324 395.382 513.037 357.14 533.005 341.48C562.07 318.685 562.723 318.629 592.197 340.123C599.681 345.579 606.915 351.382 614.23 357.065C622.279 363.326 623.648 371.505 621.268 380.954C619.058 389.73 614.876 397.488 609.69 404.755C601.96 415.593 594.181 426.387 586.276 437.099C575.896 451.162 564.531 456.657 546.272 456.412V456.405Z" fill="#0B0B0B"/>
<path d="M636.225 775.751C651.747 775.958 677.409 796.49 680.197 809.799C682.35 820.071 678.847 828.181 669.573 833.279C626.103 857.175 581.943 879.687 536.395 899.389C527.021 903.444 519.467 902.174 513.508 892.889C507.342 883.283 507.65 875.003 515.813 866.806C542.304 840.201 569.668 814.564 599.813 792.115C606.55 787.098 614.242 783.32 621.67 779.303C626.706 776.581 632.269 775.487 636.219 775.757L636.225 775.751Z" fill="#0B0B0B"/>
<path d="M437.828 287.429C438.581 283.895 438.851 280.174 440.17 276.867C449.858 252.532 459.245 228.014 472.211 205.194C481.228 189.327 488.851 188.459 498.891 203.295C517.847 231.315 535.924 259.95 553.549 288.83C560.77 300.668 557.75 307.866 547.591 317.39C527.027 336.671 505.842 343.002 480.839 325.085C471.106 318.113 459.547 313.75 449.174 307.602C441.834 303.252 437.432 296.626 437.834 287.422L437.828 287.429Z" fill="#0B0B0B"/>
<path d="M1311.91 645.719C1310.22 666.245 1304.01 685.451 1284.17 697.999C1264.43 710.484 1245.48 724.226 1225.53 736.359C1210.22 745.663 1204.68 743.809 1194.4 729.149C1188.84 721.227 1183.66 713.049 1178.27 705.014C1171.98 695.641 1172.65 686.62 1180.26 678.535C1194.91 662.976 1209.86 647.681 1226.76 634.517C1233.2 629.506 1240.65 626.099 1248.99 626.005C1264.29 625.829 1279.62 625.602 1294.9 626.193C1307.87 626.696 1312.17 631.87 1311.91 645.719Z" fill="#0B0B0B"/>
<path d="M160.667 245.818C161.496 263.766 159.361 281.249 152.73 298.015C148.266 309.312 144.021 310.349 135.312 301.894C110.165 277.483 86.5685 251.608 64.8181 224.129C51.2366 206.979 53.1894 196.971 71.4864 185.775C90.3736 174.214 109.97 163.916 130.088 154.694C147.362 146.773 155.185 150.639 156.899 169.844C159.154 195.079 159.505 220.483 160.673 245.818H160.667Z" fill="#0B0B0B"/>
<path d="M1594.39 448.126C1594.59 452.332 1593.01 455.972 1590.96 459.53C1578.43 481.344 1552.15 487.562 1531.55 473.442C1516.58 463.189 1502.34 452.011 1488.65 440.073C1478.95 431.617 1476.41 422.144 1477.63 409.011C1480.2 381.168 1496.79 362.811 1515.48 345.215C1520.82 340.192 1526.37 340.343 1531.38 345.711C1534.94 349.527 1538.5 353.444 1541.43 357.744C1558.23 382.4 1574.21 407.584 1588.95 433.541C1591.54 438.093 1594.17 442.669 1594.39 448.126Z" fill="#0B0B0B"/>
<path d="M1069.71 765.768C1070.18 772.708 1070.78 779.139 1071.02 785.583C1071.74 804.525 1067.7 821.586 1052.26 834.442C1041.13 843.721 1030.73 853.912 1019.36 862.883C1006.51 873.023 1002.01 871.357 998.786 854.899C996.011 840.698 994.291 826.232 993.054 811.798C991.641 795.352 989.117 778.995 989.707 762.348C990.153 749.693 994.824 739.125 1004.54 731.877C1018.72 721.29 1033.59 711.527 1048.73 702.349C1060.44 695.251 1065.41 697.998 1066.96 711.923C1068.95 729.953 1070.97 748.027 1069.71 765.761V765.768Z" fill="#0B0B0B"/>
<path d="M1445.32 899.018C1445.32 901.438 1444.98 903.921 1445.37 906.273C1450.83 938.403 1431.65 954.315 1406.37 966.586C1397.17 971.05 1389.59 969.717 1384.35 961.268C1370.75 939.34 1357.83 916.998 1348.21 892.951C1344.68 884.144 1345.69 875.6 1350.68 867.466C1356.8 857.501 1362.72 847.418 1368.79 837.428C1373.92 828.998 1381.19 826.408 1390.53 829.715C1404.6 834.7 1418.29 840.578 1431.55 847.411C1440.21 851.862 1444.8 859.079 1445.01 868.78C1445.23 878.857 1445.06 888.947 1445.06 899.031C1445.15 899.031 1445.24 899.031 1445.32 899.031V899.018Z" fill="#0B0B0B"/>
<path d="M692.912 273.875C692.912 284.354 693.025 294.84 692.849 305.32C692.792 308.922 692.422 312.619 691.511 316.095C686.206 336.282 636.953 357.348 619.215 346.504C608.265 339.808 597.917 331.944 588.065 323.69C576.964 314.385 575.815 302.447 583.557 290.132C588.329 282.538 594.357 275.943 601.502 270.669C622.882 254.877 644.268 239.072 666.132 223.966C682.269 212.813 688.454 215.894 691.662 235.219C691.926 236.809 692.24 238.418 692.246 240.015C692.296 251.3 692.271 262.59 692.271 273.875C692.485 273.875 692.692 273.875 692.905 273.875H692.912Z" fill="#0B0B0B"/>
<path d="M995.138 628.783C979.39 627.532 963.228 630.248 947.273 626.539C941.164 625.118 935.4 623.012 931.852 617.838C920.751 601.606 915.426 582.992 911.163 564.088C910.623 561.705 911.929 558.468 913.292 556.161C920.789 543.418 945.804 533.693 960.014 538.521C987.911 548.001 1014.58 560.392 1040.32 574.675C1054.23 582.395 1059.13 596.363 1062.07 610.772C1063.93 619.888 1057.17 623.484 1049.53 625.514C1031.7 630.254 1013.47 627.759 995.144 628.783H995.138Z" fill="#0B0B0B"/>
<path d="M1000.05 638.125C1020.13 638.125 1035.82 637.786 1051.49 638.213C1069.75 638.716 1076.64 649.68 1069.78 666.534C1067.31 672.588 1063.86 678.083 1058.42 681.842C1038.9 695.308 1019.36 708.742 999.659 721.931C987.327 730.186 974.863 729.777 962.387 721.68C951.235 714.45 940.184 707.045 930.439 698.024C921.925 690.14 915.219 681.006 919.684 668.238C924.412 654.734 929.184 642.035 946.702 639.628C966.004 636.968 985.236 639.194 1000.05 638.125Z" fill="#0B0B0B"/>
<path d="M1345.51 633.36C1365.47 636.874 1387.44 639.533 1408.83 645.43C1420.56 648.662 1426.15 657.488 1430.62 667.898C1444.44 700.086 1444.02 702.167 1413.74 718.769C1399.29 726.697 1384.42 733.876 1369.6 741.137C1359.32 746.179 1350.98 743.582 1344.7 733.92C1335.91 720.385 1327.4 706.624 1321.64 691.542C1315 674.179 1320.84 657.312 1326.22 640.898C1328.8 633.027 1336.62 633.096 1345.51 633.354V633.36Z" fill="#0B0B0B"/>
<path d="M274.574 480.257C246.532 486.814 227.029 474.479 210.685 453.287C201.851 441.827 191.515 431.586 184.985 418.378C181.042 410.406 182.273 404.478 190.165 400.134C206.039 391.396 222.025 382.871 238.884 376.145C250.017 371.706 259.366 374.259 266.801 383.733C285.983 408.181 303.093 434.025 318.847 460.806C323.782 469.199 321.152 474.272 312.581 477.616C300.098 482.482 287.057 479.835 274.58 480.257H274.574Z" fill="#0B0B0B"/>
<path d="M1282.23 613.903C1240.68 613.884 1233.76 608.93 1220.78 569.237C1214.53 550.107 1208.26 530.964 1204.47 511.143C1202.41 500.33 1209.48 484.28 1218.51 478.522C1224.97 474.398 1229.02 478.666 1233.17 482.564C1251.69 499.94 1268.23 519.177 1285.08 538.112C1291.77 545.624 1297.92 553.615 1304.77 560.976C1314.57 571.513 1316.85 584.105 1316.52 597.866C1316.26 608.792 1311.59 614.387 1300.32 613.934C1294.29 613.689 1288.25 613.89 1282.22 613.909L1282.23 613.903Z" fill="#0B0B0B"/>
<path d="M747.972 432.724C747.639 435.553 747.507 437.162 747.262 438.753C742.453 469.934 732.356 474.404 707.378 455.557C684.215 438.08 661.63 419.811 640.884 399.443C627.215 386.021 629.211 369.827 646.064 360.762C658.817 353.903 672.009 347.767 685.352 342.134C700.384 335.791 717.557 340.827 724.621 355.267C736.733 380.03 742.17 407.075 747.972 432.73V432.724Z" fill="#0B0B0B"/>
<path d="M153.182 352.268C151.405 334.402 155.669 316.963 162.205 299.819C166.174 289.415 173.106 285.448 183.861 287.674C212.625 293.627 240.981 301.146 268.703 310.871C281.016 315.19 281.902 319.817 275.007 330.661C263.448 348.842 248.089 362.302 228.467 371.279C212.023 378.804 196.219 387.794 178.782 392.974C164.981 397.073 154.645 390.233 153.302 375.843C152.592 368.261 153.176 360.554 153.176 352.268H153.182Z" fill="#0B0B0B"/>
<path d="M1282.73 351.809C1294.35 353.557 1306.06 354.45 1317.29 357.266C1328.57 360.095 1330.59 366.96 1323.34 376.05C1302.38 402.353 1277.32 424.514 1250.22 444.065C1232.58 456.795 1224.88 454.425 1212.99 435.88C1201.48 417.932 1190.63 399.55 1179.72 381.224C1175.21 373.636 1176.75 368.129 1186.25 366.375C1193.75 364.992 1201.2 363.238 1208.74 362.144C1233.38 358.58 1258.06 355.242 1282.73 351.809Z" fill="#0B0B0B"/>
<path d="M748.864 617.153C731.735 614.381 715.058 610.024 699.567 601.921C687.92 595.829 685.509 584.463 685.477 573.059C685.433 556.582 685.898 539.96 688.045 523.653C690.312 506.434 706.336 502.404 719.177 496.564C729.826 491.717 739.872 495.476 747.451 504.165C760.467 519.076 771.305 535.56 780.711 552.955C784.522 559.989 785.395 567.533 782.18 575.109C777.778 585.475 773.647 595.986 768.586 606.026C764.712 613.714 758.188 618.26 748.864 617.153Z" fill="#0B0B0B"/>
<path d="M1582.9 486.914C1586.81 486.694 1589.8 488.781 1592.75 490.925C1605.04 499.871 1614.96 510.897 1620.7 525.086C1633.55 556.859 1644.03 589.455 1653.6 622.346C1654.81 626.482 1657.21 631.474 1652.76 634.592C1648.95 637.258 1644.96 633.844 1641.71 631.788C1610.08 611.734 1579.29 590.448 1549.67 567.514C1539.58 559.706 1540.25 548.409 1542.36 537.502C1544.12 528.431 1546.79 519.497 1549.6 510.671C1553.67 497.922 1569.6 486.814 1582.9 486.914Z" fill="#0B0B0B"/>
<path d="M569.58 276.88C561.342 276.666 555.778 272.58 551.515 267.066C528.502 237.274 509.86 204.766 492.825 171.284C491.802 169.272 490.785 166.016 491.695 164.513C493.497 161.54 496.8 163.476 499.368 164.268C541.707 177.319 584.09 190.232 626.285 203.723C634.454 206.338 645.267 208.475 647.307 218.044C649.543 228.542 638.579 232.522 631.88 237.651C617.168 248.911 601.923 259.472 586.715 270.059C581.422 273.743 575.538 276.515 569.58 276.873V276.88Z" fill="#0B0B0B"/>
<path d="M1600.31 827.552C1599.26 846.443 1590 866.975 1579.76 887.099C1576.14 894.202 1570.11 895.648 1563.8 890.286C1541.07 870.974 1519.88 850.071 1500.94 826.999C1495.41 820.266 1496.35 813.414 1501.12 805.926C1519.33 777.366 1547.98 768.276 1578.82 763.096C1586.36 761.832 1589.86 767.157 1591.55 773.368C1595.99 789.713 1599.5 806.253 1600.31 827.552H1600.31Z" fill="#0B0B0B"/>
<path d="M646.491 733.977C646.403 735.033 646.359 739.094 645.662 743.035C643.854 753.27 636.96 757.262 628.05 753.289C608.911 744.758 590.118 735.793 583.613 712.489C575.262 682.59 567.206 652.653 561.467 622.145C559.194 610.062 564.946 604.404 577.045 607.528C594.595 612.061 611.599 618.58 627.704 626.904C638.165 632.31 640.388 643.425 641.267 653.867C643.427 679.541 644.683 705.291 646.491 733.977Z" fill="#0B0B0B"/>
<path d="M1926.14 756.828C1886.42 753.786 1866.46 750.818 1850.42 701.745C1839.39 667.974 1831.07 633.511 1825.55 598.388C1824.93 594.484 1823 589.731 1827.64 587.556C1831.61 585.695 1834.29 589.744 1836.45 592.428C1843.24 600.915 1849.92 609.515 1856.21 618.366C1878.88 650.239 1901.42 682.194 1923.88 714.218C1928.97 721.473 1933.9 728.884 1938.23 736.604C1947.45 753.044 1944.92 757.067 1926.14 756.828H1926.14Z" fill="#0B0B0B"/>
<path d="M1153.09 679.579C1130.38 672.123 1107.95 664.158 1088.39 650.365C1079.73 644.255 1079.52 633.127 1087.21 624.628C1100.78 609.622 1116.93 597.558 1134.29 587.216C1138.6 584.652 1143.56 584.13 1148.33 585.802C1168.87 592.981 1189.03 601.06 1208 611.828C1215.74 616.223 1217.92 623.05 1212.52 630.091C1198.74 648.064 1183.06 664.233 1163.57 676.146C1160.6 677.957 1156.81 678.403 1153.09 679.579H1153.09Z" fill="#0B0B0B"/>
<path d="M1387.58 245.566C1384.54 269.116 1381.98 292.734 1378.32 316.19C1375.18 336.288 1358.31 344.611 1342.86 352.872C1335 357.078 1328.47 350.414 1326.19 343.203C1317.78 316.724 1310.16 289.975 1306.73 262.282C1305.38 251.388 1310.43 243.196 1320.13 238.796C1334.03 232.49 1348.08 226.285 1362.55 221.463C1380.06 215.623 1386.01 220.571 1386.6 239.399C1386.66 241.411 1386.61 243.429 1386.61 245.447C1386.93 245.484 1387.25 245.522 1387.58 245.566H1387.58Z" fill="#0B0B0B"/>
<path d="M520.861 727.69C503.814 728.803 485.416 725.999 466.925 725.27C461.236 725.043 455.195 724.044 452.696 718.015C450.455 712.615 454.932 708.862 457.946 705.341C479.181 680.572 500.542 655.885 524.176 633.354C539.679 618.574 548.671 620.957 555.377 640.967C562.039 660.857 567.024 681.226 570.785 701.846C574.032 719.631 568.129 726.823 550.14 727.621C540.904 728.036 531.63 727.69 520.861 727.69Z" fill="#0B0B0B"/>
<path d="M1369.16 479.779C1367.6 483.444 1365.98 488.002 1363.77 492.264C1354.67 509.854 1342.81 525.683 1331.32 541.695C1322.96 553.344 1315.32 554.118 1303.86 545.348C1285.45 531.247 1272.93 511.614 1257.37 494.835C1251.9 488.945 1246.62 482.822 1241.81 476.384C1233.32 465.005 1234.81 461.152 1248.79 457.562C1252.25 456.676 1255.93 456.368 1259.52 456.286C1290.56 455.607 1321.28 459.354 1351.85 464.037C1359.88 465.269 1369.17 467.055 1369.15 479.773L1369.16 479.779Z" fill="#0B0B0B"/>
<path d="M1615.35 436.087C1605.85 435.987 1599.72 432.026 1595.22 426.154C1573.11 397.381 1554.5 366.338 1536.9 334.672C1534.52 330.378 1533.84 325.563 1534.72 320.603C1537.05 307.439 1543.95 303.987 1554.89 311.626C1588.52 335.093 1621.21 359.831 1652.33 386.587C1656.57 390.227 1660.3 394.552 1663.81 398.927C1667.24 403.202 1667.69 408.508 1663.18 411.915C1648.31 423.137 1631.77 431.196 1615.33 436.093L1615.35 436.087Z" fill="#0B0B0B"/>
<path d="M467.81 398.663C450.681 398.173 435.077 396.639 419.612 393.747C411.594 392.251 405.202 388.234 401.617 380.866C395.407 368.117 391.633 354.487 388.362 340.739C387.596 337.507 388.393 334.339 389.925 331.372C397.473 316.787 422.576 307.087 437.759 313.241C455.716 320.515 472.846 329.542 489.579 339.268C507.706 349.804 509.289 356.21 501.39 382.463C497.057 396.853 492.009 399.726 472.437 398.934C470.422 398.852 468.413 398.707 467.81 398.669V398.663Z" fill="#0B0B0B"/>
<path d="M352.999 567.791C339.926 568.872 328.027 566.276 316.04 565.031C302.377 563.617 297.718 557.77 301.015 544.688C305.241 527.915 310.019 511.13 316.48 495.124C324.147 476.145 358.882 470.99 375.452 486.109C390.673 499.997 402.929 516.631 414.702 533.479C421.421 543.091 415.525 549.855 407.356 553.967C390.057 562.674 372.495 571.217 352.999 567.791Z" fill="#0B0B0B"/>
<path d="M1645.43 504.68C1619.08 505.604 1608.31 492.352 1597.79 478.893C1595 475.322 1595.86 471.487 1598.02 467.596C1602.21 460.033 1607.47 453.476 1615.15 449.408C1636.83 437.935 1658.44 426.337 1680.44 415.499C1691.91 409.847 1697.32 412.456 1701.63 424.589C1707.41 440.903 1712.93 457.317 1718.01 473.87C1721.96 486.788 1717.85 494.27 1704.34 496.564C1682.59 500.254 1660.62 502.65 1645.43 504.693V504.68Z" fill="#0B0B0B"/>
<path d="M1126.58 182.839C1129.09 183.574 1133.03 184.467 1136.78 185.881C1156.38 193.268 1175.75 201.221 1194.34 210.933C1220.45 224.575 1226.23 248.59 1208.42 271.486C1199.54 282.902 1189.49 293.426 1179.79 304.182C1173.02 311.695 1166.91 310.582 1161.04 302.567C1152.84 291.364 1147.92 278.52 1142.41 266.016C1133.13 245.007 1123.01 224.292 1116.83 202.076C1113.2 189.018 1116.25 182.851 1126.58 182.851V182.839Z" fill="#0B0B0B"/>
<path d="M957.54 425.193C957.439 433.032 953.835 438.658 947.506 442.28C931.055 451.697 913.838 459.505 895.334 463.824C883.385 466.615 877.853 463.075 875.153 451.112C869.42 425.727 868.347 401.021 885.074 378.402C893.657 366.797 899.917 353.494 910.077 342.989C919.552 333.195 925.102 333.754 933.02 345.133C938.37 352.822 941.918 361.378 944.253 370.38C948.492 386.725 952.473 403.139 956.516 419.535C957 421.483 957.232 423.489 957.533 425.193H957.54Z" fill="#0B0B0B"/>
<path d="M1148.87 497.664C1138.42 498.689 1125.67 496.727 1112.97 494.892C1095.88 492.421 1090.23 478.622 1101.06 464.955C1118.33 443.166 1138.15 423.684 1158.39 404.717C1167.67 396.023 1173.93 396.708 1181.66 406.641C1192.79 420.955 1201.96 436.565 1209.8 452.941C1213.11 459.838 1211.91 465.948 1207.9 472.26C1196.91 489.529 1182.48 499.978 1161 497.708C1157.82 497.375 1154.57 497.664 1148.87 497.664Z" fill="#0B0B0B"/>
<path d="M1108.34 325.299C1097.65 322.633 1084.72 319.666 1071.95 316.164C1045.24 308.841 1017.92 303.315 992.671 291.446C973.388 282.38 972.226 276.201 985.745 259.692C994.422 249.099 1003.58 238.884 1014.23 230.258C1027.96 219.131 1035.25 219.232 1047.68 231.817C1068.61 253.003 1087.74 275.817 1105.99 299.367C1109.92 304.446 1113.81 309.614 1117.11 315.115C1121.38 322.244 1118.62 325.632 1108.35 325.311L1108.34 325.299Z" fill="#0B0B0B"/>
<path d="M1508.62 536.924C1493.04 535.057 1477.45 533.378 1461.91 531.247C1451.41 529.807 1444.36 523.697 1440.83 513.632C1438.97 508.301 1437.07 502.983 1435.37 497.601C1425.91 467.702 1432.3 454.96 1461.74 443.851C1470.04 440.714 1476.84 443.763 1483.28 448.063C1499.37 458.819 1514.87 470.418 1529.12 483.545C1541.34 494.798 1542.14 504.787 1534.66 524.206C1529.67 537.156 1519.31 536.591 1508.61 536.918L1508.62 536.924Z" fill="#0B0B0B"/>
<path d="M660.606 504.787C631.679 506.522 613.15 483.519 593.572 462.749C588.549 457.418 590.414 450.301 594.206 444.668C600.943 434.648 608.001 424.809 615.372 415.247C621.827 406.88 630.36 405.629 638.9 411.507C664.832 429.367 688.636 449.892 711.41 471.594C716.471 476.416 718.072 482.507 711.234 486.933C697.012 496.137 682.589 505.258 660.606 504.781V504.787Z" fill="#0B0B0B"/>
<path d="M228.153 507.993C225.635 536.396 221.403 564.654 214.867 592.541C212.751 601.562 206.798 604.637 197.819 603.983C169.583 601.927 157.559 583.331 162.437 559.386C168.635 528.984 174.33 498.481 181.909 468.388C183.522 461.982 183.736 453.218 191.195 451.282C198.309 449.434 201.813 457.392 206.152 461.793C218.722 474.548 231.356 487.467 228.16 507.987L228.153 507.993Z" fill="#0B0B0B"/>
<path d="M1275.41 295.677C1275.41 297.688 1275.41 299.7 1275.41 301.712C1275.36 339.846 1271.82 343.888 1234.12 349.571C1218.99 351.853 1203.81 353.419 1188.54 352.067C1180.96 351.394 1172.58 350.363 1169.2 342.172C1166.17 334.829 1171.35 329.046 1175.65 323.79C1190.92 305.125 1206.41 286.655 1223.22 269.311C1234.3 257.869 1248.36 255.901 1262.98 255.436C1271.16 255.172 1274.38 260.981 1274.81 267.946C1275.38 277.156 1274.95 286.429 1274.95 295.677C1275.11 295.677 1275.26 295.677 1275.41 295.677H1275.41Z" fill="#0B0B0B"/>
<path d="M395.627 103.043C357.237 96.7567 317.076 90.5015 277.965 79.2046C266.317 75.8412 265.306 69.8564 274.624 62.4131C293.832 47.0676 313.755 32.6336 335.562 21.1417C349.087 14.0128 356.54 15.1569 366.687 26.5671C382.792 44.6787 396.211 64.8209 408.536 85.6672C410.96 89.766 414.351 94.3867 411.751 99.1456C408.662 104.81 402.427 102.283 395.627 103.037V103.043Z" fill="#0B0B0B"/>
<path d="M179.498 440.142C172.949 475.705 166.965 511.903 156.083 546.976C152.278 559.235 146.439 560.869 136.273 553.376C122.98 543.581 110.674 532.548 99.3526 520.478C91.8178 512.45 90.1287 503.184 95.9556 493.899C112.934 466.822 133.611 442.707 156.611 420.61C159.995 417.36 164.767 413.87 169.633 417.246C177.218 422.508 178.882 430.932 179.504 440.155L179.498 440.142Z" fill="#0B0B0B"/>
<path d="M1075.83 172.271C1085.11 172.214 1092.63 175.32 1096.85 183.926C1118.72 228.41 1140.63 272.881 1152.67 321.363C1153.78 325.871 1156.65 331.868 1151.38 334.578C1146.16 337.262 1142.76 331.34 1139.81 327.977C1109.53 293.457 1079.69 258.548 1052.07 221.828C1046.21 214.033 1040.85 205.037 1047.44 195.173C1054.44 184.712 1060.13 172.007 1075.82 172.271H1075.83Z" fill="#0B0B0B"/>
<path d="M878.839 530.505C879.944 540.469 874.889 546.052 865.735 547.605C848.335 550.559 830.892 553.382 813.361 555.362C803.66 556.456 795.165 552.219 788.867 544.688C778.274 532.014 769.076 518.29 760.901 503.97C755.287 494.137 757.667 488.41 768.605 486.43C795.127 481.633 821.932 479.163 848.901 480.936C860.774 481.715 869.169 488.134 872.836 499.852C875.963 509.854 878.104 520.076 878.833 530.499L878.839 530.505Z" fill="#0B0B0B"/>
<path d="M1227.02 122.632C1224.4 141.624 1220.67 164.689 1213.16 186.887C1209.13 198.8 1202.6 202.013 1190.56 197.939C1169.97 190.974 1149.73 182.946 1130.56 172.604C1118.71 166.204 1117.73 158.503 1127.93 150.004C1147.08 134.036 1165.44 117.037 1186.13 102.98C1189.76 100.516 1193.62 98.0454 1197.74 96.6938C1216.69 90.489 1227.49 98.6112 1227.01 122.632H1227.02Z" fill="#0B0B0B"/>
<path d="M234.64 621.107C234.746 615.795 237.697 612.004 241.546 608.905C248.127 603.606 255.429 599.086 261.438 593.22C286.14 569.086 315.777 573.197 345.432 578.126C355.177 579.742 353.978 586.701 349.545 592.648C338.243 607.805 326.627 622.736 314.778 637.459C306.459 647.794 297.637 657.733 288.859 667.691C284.645 672.475 279.628 675.191 272.791 673.009C260.854 669.206 234.338 633.41 234.64 621.107Z" fill="#0B0B0B"/>
<path d="M1441.79 607.786C1441.71 624.502 1429.04 637.377 1413.43 635.164C1389.53 631.782 1365.62 628.224 1342.31 621.604C1334.69 619.441 1327.5 617.059 1326.39 607.509C1325.25 597.778 1329.48 591.303 1337.98 587.034C1363.23 574.379 1389.02 562.95 1415.59 553.432C1430.66 548.032 1435.61 551.27 1437.64 566.905C1439.4 580.477 1440.44 594.151 1441.79 607.78V607.786Z" fill="#0B0B0B"/>
<path d="M650.528 655.709C647.615 635.365 655.985 622.019 674.772 614.613C679.343 612.809 683.807 611.722 688.862 612.746C704.71 615.971 719.974 621.101 735.113 626.621C743.884 629.821 746.44 635.315 740.186 643.236C718.894 670.218 694.977 694.755 669.635 717.87C662.302 724.559 657.423 722.623 656.041 712.212C653.549 693.466 652.299 674.556 650.528 655.709Z" fill="#0B0B0B"/>
<path d="M1432.21 520.61C1431.81 529.336 1428.32 535.132 1422.22 538.973C1394.82 556.23 1364.49 567.106 1334.44 578.466C1327.02 581.269 1323.67 576.875 1325.78 569.394C1326.85 565.584 1328.57 561.787 1330.76 558.487C1347.64 532.995 1364.64 507.578 1381.79 482.256C1385.89 476.189 1391 470.953 1398.67 469.463C1405.77 468.08 1413.22 468.318 1417.04 475.07C1425.22 489.542 1429.17 505.623 1432.2 520.617L1432.21 520.61Z" fill="#0B0B0B"/>
<path d="M1258.64 854.515C1258.45 842.508 1263.24 834.436 1273.98 830.293C1296.91 821.448 1320.47 814.577 1344.24 808.46C1351.86 806.498 1358.75 808.422 1363.73 814.79C1368.52 820.907 1364.02 826.219 1361.55 831.538C1360.2 834.455 1357.99 837.001 1356.86 839.981C1343.14 875.984 1313.41 888.142 1278.68 893.505C1269.01 895.001 1263.74 891.65 1262.2 882.553C1260.58 873.042 1259.73 863.398 1258.64 854.509L1258.64 854.515Z" fill="#0B0B0B"/>
<path d="M1471.14 392.377C1470.04 424.796 1443.78 455.154 1411.94 460.309C1401.75 461.956 1393 458.983 1386.59 450.1C1364.58 419.591 1366.78 409.646 1399.83 393.144C1412.06 387.039 1424.5 381.344 1436.83 375.441C1446.58 370.776 1455.65 373.555 1464.54 377.993C1470.55 380.992 1471.4 386.448 1471.14 392.37L1471.14 392.377Z" fill="#0B0B0B"/>
<path d="M1841.03 756.181C1843.05 756.181 1846.69 755.86 1850.25 756.244C1861.2 757.419 1864.94 762.819 1860.27 772.545C1848.45 797.176 1837.17 822.139 1822.39 845.199C1814.5 857.514 1808.92 857.703 1801.01 845.689C1788.19 826.207 1776.48 805.996 1766.57 784.86C1760.89 772.721 1764.12 766.799 1777.41 764.215C1797.89 760.236 1818.59 757.671 1841.02 756.181H1841.03Z" fill="#0B0B0B"/>
<path d="M279.478 490.46C302.22 490.013 306.201 494.948 301.071 514.889C298.968 523.081 295.967 531.065 294.177 539.313C287.534 569.947 262.713 583.809 239.361 598.708C231.01 604.039 225.962 598.4 226.044 590.001C226.163 578.365 227.331 566.684 228.863 555.13C230.558 542.355 233.013 529.675 235.425 517.014C238.934 498.576 243.958 494.087 262.456 492.189C268.86 491.528 275.265 490.887 279.472 490.46H279.478Z" fill="#0B0B0B"/>
<path d="M1423.65 91.6646C1423.08 94.5815 1422.62 98.6175 1421.51 102.459C1414.3 127.209 1406.69 151.859 1395.53 175.15C1390.33 186.007 1384.91 186.736 1377.73 177.344C1362.57 157.51 1348.95 136.601 1337.22 114.504C1332.72 106.042 1334.34 99.5354 1343.52 96.1657C1365.52 88.1064 1388.5 84.127 1411.6 81.0591C1417.89 80.223 1423.97 81.9078 1423.65 91.6583V91.6646Z" fill="#0B0B0B"/>
<path d="M883.479 495.866C882.826 487.555 886.863 481.042 894.693 476.874C913.932 466.627 934.05 458.405 954.645 451.351C959.562 449.666 964.459 449.434 967.674 454.268C972.421 461.403 977.356 469.469 973.187 477.912C960.365 503.856 945.145 527.997 917.222 540.557C904.369 546.341 896.627 543.468 890.894 530.776C887.567 523.401 883.441 504.441 883.479 495.873V495.866Z" fill="#0B0B0B"/>
<path d="M780.56 476.239C775.066 476.239 772.253 476.227 769.434 476.239C748.06 476.346 745.046 471.198 754.929 451.866C758.615 444.656 764.21 439.74 771.594 436.86C794.499 427.921 817.776 420.088 841.68 414.317C854.596 411.199 859.613 414.883 861.779 427.833C867.788 463.792 866.011 466.351 829.58 471.82C820.846 473.134 811.974 473.524 803.164 474.303C794.757 475.045 786.343 475.749 780.56 476.239Z" fill="#0B0B0B"/>
<path d="M1245.4 248.923C1235.9 249.143 1230.2 244.642 1226.3 236.432C1220.13 223.475 1215.93 210.55 1219.57 195.802C1224.2 177.08 1227.77 158.107 1232.06 139.304C1232.91 135.595 1233.28 130.472 1238.19 129.95C1242.37 129.503 1243.99 133.954 1245.59 136.984C1261.32 166.902 1275.06 197.738 1287.66 229.095C1290.46 236.074 1288.62 241.172 1280.92 242.693C1269.13 245.019 1257.25 246.874 1245.41 248.93L1245.4 248.923Z" fill="#0B0B0B"/>
<path d="M1082.57 461.127C1063.33 460.668 1055.57 449.685 1060.3 431.177C1065.21 411.909 1075.3 398.28 1094.49 390.73C1110.94 384.261 1126.46 375.409 1143.61 370.619C1150.15 368.789 1157.8 366.338 1162.43 373.36C1166.99 380.288 1162.36 386.386 1157.75 391.742C1138.81 413.732 1119.2 435.081 1097.74 454.651C1093.48 458.543 1088.63 461.303 1082.57 461.12L1082.57 461.127Z" fill="#0B0B0B"/>
<path d="M1028.82 447.101C1028.12 462.089 1017.05 465.936 1006.96 469.136C996.978 472.304 986.008 471.317 980.508 460.693C966.481 433.591 960.108 403.919 953.979 374.309C952.454 366.935 957.1 364.879 963.561 367.35C977.877 372.832 991.779 379.244 1004.59 387.712C1007.85 389.862 1010.91 393.024 1012.79 396.425C1021.69 412.519 1024.85 430.454 1028.82 447.101Z" fill="#0B0B0B"/>
<path d="M1057.65 559.329C1056.7 534.177 1073.95 519.07 1089.41 503.473C1095.57 497.256 1102.48 502.285 1104.33 509.074C1110.56 531.976 1116.45 555.123 1115.58 579.144C1115.23 588.908 1090.11 612.294 1080.63 613.035C1076.26 613.375 1074.13 610.672 1072.06 607.535C1065.2 597.124 1057.65 571.99 1057.65 559.329Z" fill="#0B0B0B"/>
<path d="M1479.24 541.192C1488.63 542.286 1503.83 543.619 1518.88 545.964C1531.08 547.869 1537.05 558.657 1529.58 567.829C1512.75 588.518 1496.71 610.992 1466.51 614.356C1457.3 615.38 1452.19 612.841 1451.29 603.964C1449.7 588.392 1447.86 572.745 1447.9 557.135C1447.94 544.172 1454.16 541.029 1479.24 541.192H1479.24Z" fill="#0B0B0B"/>
<path d="M1050.39 549.139C1050.42 563.969 1047.38 566.37 1035.78 562.026C1013.57 553.703 991.905 544.047 970.92 532.995C957.42 525.885 956.435 521.094 964.421 508.075C968.415 501.568 972.697 495.225 977.042 488.945C985.525 476.68 998.46 473.769 1008.59 484.374C1024.08 500.594 1038.19 518.303 1047.96 538.835C1049.8 542.701 1049.99 547.353 1050.38 549.145L1050.39 549.139Z" fill="#0B0B0B"/>
<path d="M1348.59 453.928C1331 451.967 1307.89 449.44 1284.81 446.755C1280.85 446.297 1276.37 445.636 1274.72 441.343C1272.94 436.735 1276.78 433.931 1279.51 431.133C1294.42 415.895 1310.57 402.033 1327.12 388.636C1334.52 382.645 1340.65 383.242 1345.98 391.855C1354.26 405.22 1361.37 419.145 1367.67 433.522C1375.7 451.86 1374.14 454.218 1348.59 453.928Z" fill="#0B0B0B"/>
<path d="M1218.22 591.183C1218.69 600.462 1214.76 602.197 1209.1 600.311C1192.29 594.697 1175.85 588.109 1160.58 578.981C1154.4 575.297 1153.35 569.407 1156.13 563.145C1162.52 548.686 1171.22 535.572 1181.11 523.326C1186.2 517.014 1191.82 517.957 1195.56 524.872C1207.16 546.373 1212.03 570.174 1218.22 591.183H1218.22Z" fill="#0B0B0B"/>
<path d="M639.565 618.599C624.263 614.909 607.668 608.817 591.839 600.783C586.407 598.029 586.501 592.881 589.836 588.348C595.556 580.559 601.59 573.002 607.618 565.452C613.533 558.053 620.496 557.996 627.817 563.17C640.67 572.248 652.927 582.036 664.141 593.138C670.747 599.676 669.912 604.8 662.44 609.71C656.029 613.922 649.863 618.586 639.559 618.593L639.565 618.599Z" fill="#0B0B0B"/>
<path d="M1368.96 398.129C1357.52 397.896 1354.75 390.095 1351.21 383.5C1347.17 375.975 1346.17 368.381 1351.95 360.881C1366.65 341.789 1381.55 337.853 1403.27 348.012C1410.91 351.583 1418.32 355.688 1425.61 359.913C1429.2 361.987 1433.2 365.583 1427.75 369.116C1408.82 381.381 1388.81 391.553 1368.95 398.129H1368.96Z" fill="#0B0B0B"/>
<path d="M1047.29 459.769C1059.35 463.094 1071.16 466.42 1080.73 473.895C1087.43 479.131 1088.04 487.272 1083.72 494.753C1077.86 504.9 1070.2 513.72 1061.97 522.018C1057.93 526.086 1053.45 526.664 1049.29 522.364C1037.77 510.464 1028.26 497.023 1019.76 482.847C1018.02 479.942 1017.2 476.334 1020.06 473.92C1028.08 467.13 1036.95 461.755 1047.3 459.769H1047.29Z" fill="#0B0B0B"/>
<path d="M677.899 550.792C678.652 559.442 677.045 568.979 675.601 578.547C674.59 585.242 671.142 586.959 665.604 583.262C652.192 574.323 639.346 564.484 628.263 552.829C618.826 542.909 629.94 516.587 644.425 512.934C665.554 507.603 677.038 516.052 677.873 537.622C678.03 541.645 677.899 545.681 677.899 550.792Z" fill="#0B0B0B"/>
<path d="M1146.3 507.125C1154.67 508.546 1167.21 502.932 1172.48 512.048C1177.78 521.207 1167.17 529.418 1162.65 537.452C1156.36 548.629 1148.9 559.159 1141.57 569.721C1138.88 573.593 1135.6 578.371 1130.26 577.579C1124.31 576.699 1124.29 570.456 1123.39 566.024C1120.76 553.043 1118.65 539.954 1116.5 526.878C1113.98 511.444 1117.6 507.276 1133.36 507.125C1137.38 507.088 1141.39 507.125 1146.3 507.125Z" fill="#0B0B0B"/>
<path d="M1302.36 344.938C1292.27 344.649 1285.89 340.676 1284.37 329.605C1281.36 307.533 1282.6 285.448 1283.19 263.364C1283.31 258.73 1283.95 252.645 1289.85 251.834C1296.38 250.935 1297.03 257.303 1298.26 261.691C1304.62 284.537 1311.01 307.395 1314.9 330.837C1316.81 342.386 1313.97 345.41 1302.36 344.938Z" fill="#0B0B0B"/>
<path d="M1037.37 395.853C1040.04 396.526 1045.91 397.777 1051.63 399.518C1058.04 401.473 1060.75 405.968 1058.68 412.544C1055.2 423.64 1051.59 434.692 1047.77 445.674C1046.72 448.685 1044.86 451.772 1041.06 451.747C1037.04 451.722 1035.89 448.201 1035.02 445.203C1031.32 432.491 1027.54 419.792 1024.45 406.93C1022.68 399.594 1026 395.262 1037.36 395.859L1037.37 395.853Z" fill="#0B0B0B"/>
</g>
</g>
<rect width="1860" height="883" fill="url(#paint0_linear_6002_1176)"/>
<defs>
<linearGradient id="paint0_linear_6002_1176" x1="0" y1="441.5" x2="1860" y2="441.5" gradientUnits="userSpaceOnUse">
<stop stop-color="#1B1B1B"/>
<stop offset="1" stop-color="#1B1B1B" stop-opacity="0"/>
</linearGradient>
<clipPath id="clip0_6002_1176">
<rect width="1860" height="955" fill="white"/>
</clipPath>
</defs>
</svg>
