<?xml version="1.0" standalone="no"?>
<!DOCTYPE svg PUBLIC "-//W3C//DTD SVG 20010904//EN"
 "http://www.w3.org/TR/2001/REC-SVG-20010904/DTD/svg10.dtd">
<svg xmlns="http://www.w3.org/2000/svg" width="64" height="64" viewBox="0 0 150 53">
  <g transform="scale(1,1)" fill="#000" stroke="none">
    <path d="M638 471 c-36 -29 -79 -95 -88 -138 -13 -54 6 -106 54 -154 39 -40 113 -85 123 -76 2 3 -3 20 -12 38 -52 99 -77 238 -55 303 15 46 10 52 -22 27z"/>
    <path d="M825 473 c4 -10 9 -45 12 -79 6 -66 -11 -138 -54 -236 -14 -32 -23 -64 -20 -72 8 -19 81 -39 116 -31 33 7 75 49 91 89 15 39 6 43 -29 13 -31 -26 -128 -67 -159 -67 -9 0 12 19 46 41 140 91 155 198 47 318 -39 43 -62 54 -50 24z"/>
    <path d="M525 143 c31 -74 83 -102 154 -83 54 14 59 26 13 35 -52 9 -127 43 -148 66 -27 30 -36 22 -19 -18z"/>
  </g>
</svg>
