<svg width="24" height="24" viewBox="0 0 24 24" fill="none" xmlns="http://www.w3.org/2000/svg">
<path fill-rule="evenodd" clip-rule="evenodd" d="M7.75516 19.7676V9.30776H4.32197V19.7676H7.75516ZM6.03855 7.87965C7.23577 7.87965 7.98095 7.07645 7.98095 6.07269C7.95863 5.04633 7.23578 4.26542 6.06126 4.26542C4.88687 4.26542 4.11902 5.04633 4.11902 6.07269C4.11902 7.07645 4.86403 7.87965 6.01617 7.87965H6.03855Z" fill="#F0813E"/>
<path fill-rule="evenodd" clip-rule="evenodd" d="M9.65491 19.7676H13.0881V13.9264C13.0881 13.6138 13.1104 13.3015 13.201 13.078C13.4492 12.4534 14.0141 11.8065 14.9625 11.8065C16.2049 11.8065 16.7018 12.7657 16.7018 14.1718V19.7676H20.1347V13.7701C20.1347 10.5573 18.4409 9.06231 16.1822 9.06231C14.3301 9.06231 13.517 10.1106 13.0652 10.8247H13.0882V9.30776H9.655C9.70005 10.2892 9.65491 19.7676 9.65491 19.7676Z" fill="#F0813E"/>
</svg>
