<svg width="24" height="25" viewBox="0 0 24 25" fill="none" xmlns="http://www.w3.org/2000/svg">
<path d="M21.88 4.03239C21.7684 3.93606 21.6327 3.87199 21.4874 3.84709C21.3421 3.82219 21.1928 3.8374 21.0556 3.89108L2.81599 11.029C2.55749 11.1296 2.33864 11.3113 2.19239 11.547C2.04614 11.7827 1.9804 12.0594 2.00507 12.3357C2.02975 12.6119 2.14349 12.8727 2.32918 13.0787C2.51488 13.2847 2.76247 13.4249 3.03469 13.478L7.76063 14.4059V19.6754C7.7597 19.9625 7.845 20.2431 8.00547 20.4811C8.16594 20.7191 8.39419 20.9034 8.66064 21.0101C8.92667 21.1188 9.21924 21.1449 9.5003 21.085C9.78135 21.0251 10.0379 20.8821 10.2366 20.6744L12.5154 18.311L16.1307 21.4754C16.3915 21.7068 16.728 21.8348 17.0766 21.8354C17.2294 21.8353 17.3812 21.8113 17.5266 21.7643C17.7642 21.689 17.9778 21.5527 18.1463 21.369C18.3148 21.1854 18.4322 20.9608 18.4869 20.7176L22.1401 4.82529C22.1727 4.68197 22.1658 4.53245 22.12 4.39277C22.0742 4.25309 21.9912 4.12851 21.88 4.03239ZM16.3773 7.27242L8.31414 13.0469L3.8501 12.1712L16.3773 7.27242ZM9.20064 19.6754V15.4022L11.4318 17.3588L9.20064 19.6754ZM17.0784 20.3954L9.63715 13.8704L20.3472 6.19421L17.0784 20.3954Z" fill="#F0813E"/>
</svg>
