<svg width="24" height="25" viewBox="0 0 24 25" fill="none" xmlns="http://www.w3.org/2000/svg">
<path d="M20 4.83545H4C2.9 4.83545 2.01 5.73545 2.01 6.83545L2 18.8354C2 19.9354 2.9 20.8354 4 20.8354H20C21.1 20.8354 22 19.9354 22 18.8354V6.83545C22 5.73545 21.1 4.83545 20 4.83545ZM19 18.8354H5C4.45 18.8354 4 18.3854 4 17.8354V8.83545L10.94 13.1754C11.59 13.5854 12.41 13.5854 13.06 13.1754L20 8.83545V17.8354C20 18.3854 19.55 18.8354 19 18.8354ZM12 11.8354L4 6.83545H20L12 11.8354Z" fill="#F0813E"/>
</svg>
