<svg width="24" height="25" viewBox="0 0 24 25" fill="none" xmlns="http://www.w3.org/2000/svg">
<path d="M19.23 16.0952L16.69 15.8052C16.08 15.7352 15.48 15.9452 15.05 16.3752L13.21 18.2152C10.38 16.7752 8.06004 14.4652 6.62004 11.6252L8.47004 9.77521C8.90004 9.34521 9.11004 8.74521 9.04004 8.13521L8.75004 5.61522C8.63004 4.60522 7.78004 3.84521 6.76004 3.84521H5.03004C3.90004 3.84521 2.96004 4.78521 3.03004 5.91521C3.56004 14.4552 10.39 21.2752 18.92 21.8052C20.05 21.8752 20.99 20.9352 20.99 19.8052V18.0752C21 17.0652 20.24 16.2152 19.23 16.0952Z" fill="#F0813E"/>
</svg>
