<svg width="40" height="40" viewBox="0 0 40 40" fill="none" xmlns="http://www.w3.org/2000/svg">
<path d="M13.5452 21.0888L5.9949 23.1119C4.10922 15.5593 5.25815 13.9228 9.14518 9.94801C9.59016 9.48369 9.58608 8.76009 9.11744 8.299C8.66921 7.8497 7.92951 7.8581 7.48453 8.32243C2.90588 13.0002 1.53249 15.4733 4.03872 24.8266L6.36378 33.5039C7.10141 36.2568 9.93442 37.8788 12.6712 37.1455L17.5008 35.8514C20.3342 35.0922 21.9016 32.3773 21.1424 29.5439L19.8483 24.7143C19.0935 21.897 16.3786 20.3296 13.5452 21.0888Z" fill="#F0813E"/>
<path d="M30.9639 16.4214L23.4136 18.4445C21.5279 10.8919 22.6768 9.25542 26.5639 5.28061C27.0089 4.81629 27.0048 4.09269 26.5361 3.6316C26.0718 3.18662 25.3482 3.1907 24.8871 3.65934C20.3085 8.33711 18.9351 10.8102 21.4456 20.1797L23.7707 28.8569C24.5083 31.6098 27.3413 33.2318 30.0781 32.4985L34.9077 31.2044C37.7411 30.4452 39.3085 27.7303 38.5493 24.897L37.2552 20.0673C36.5121 17.2296 33.7973 15.6622 30.9639 16.4214Z" fill="#F0813E"/>
</svg>
