<svg width="24" height="25" viewBox="0 0 24 25" fill="none" xmlns="http://www.w3.org/2000/svg">
<path d="M19.0498 5.74545C17.1798 3.86545 14.6898 2.83545 12.0398 2.83545C6.5798 2.83545 2.1298 7.28545 2.1298 12.7454C2.1298 14.4954 2.5898 16.1954 3.4498 17.6954L2.0498 22.8354L7.2998 21.4555C8.7498 22.2455 10.3798 22.6654 12.0398 22.6654C17.4998 22.6654 21.9498 18.2154 21.9498 12.7554C21.9498 10.1054 20.9198 7.61545 19.0498 5.74545ZM12.0398 20.9854C10.5598 20.9854 9.1098 20.5854 7.8398 19.8354L7.5398 19.6554L4.4198 20.4754L5.2498 17.4354L5.0498 17.1255C4.2298 15.8155 3.7898 14.2954 3.7898 12.7454C3.7898 8.20545 7.4898 4.50545 12.0298 4.50545C14.2298 4.50545 16.2998 5.36545 17.8498 6.92545C19.4098 8.48545 20.2598 10.5554 20.2598 12.7554C20.2798 17.2954 16.5798 20.9854 12.0398 20.9854ZM16.5598 14.8254C16.3098 14.7054 15.0898 14.1054 14.8698 14.0154C14.6398 13.9354 14.4798 13.8954 14.3098 14.1354C14.1398 14.3854 13.6698 14.9454 13.5298 15.1054C13.3898 15.2754 13.2398 15.2954 12.9898 15.1654C12.7398 15.0454 11.9398 14.7754 10.9998 13.9354C10.2598 13.2754 9.7698 12.4654 9.6198 12.2154C9.4798 11.9654 9.5998 11.8354 9.7298 11.7054C9.8398 11.5954 9.9798 11.4154 10.0998 11.2754C10.2198 11.1354 10.2698 11.0254 10.3498 10.8654C10.4298 10.6954 10.3898 10.5554 10.3298 10.4354C10.2698 10.3154 9.7698 9.09545 9.5698 8.59545C9.3698 8.11545 9.1598 8.17545 9.0098 8.16545C8.8598 8.16545 8.6998 8.16545 8.5298 8.16545C8.3598 8.16545 8.0998 8.22545 7.8698 8.47545C7.6498 8.72545 7.0098 9.32545 7.0098 10.5454C7.0098 11.7654 7.89981 12.9454 8.0198 13.1054C8.1398 13.2754 9.7698 15.7754 12.2498 16.8454C12.8398 17.1054 13.2998 17.2555 13.6598 17.3654C14.2498 17.5554 14.7898 17.5254 15.2198 17.4654C15.6998 17.3954 16.6898 16.8654 16.8898 16.2854C17.0998 15.7054 17.0998 15.2154 17.0298 15.1054C16.9598 14.9955 16.8098 14.9454 16.5598 14.8254Z" fill="#F0813E"/>
</svg>
